HIERARCHY
ROOT Hips
{
	OFFSET 0.00000 0.00000 0.00000
	CHANNELS 6 Xposition Yposition Zposition Zrotation Yrotation Xrotation 
	JOINT LHipJoint
	{
		OFFSET 0 0 0
		CHANNELS 3 Zrotation Yrotation Xrotation
		JOINT LeftHip
		{
			OFFSET 1.52977 -1.71332 0.88991
			CHANNELS 3 Zrotation Yrotation Xrotation
			JOINT LeftKnee
			{
				OFFSET 2.23949 -6.15296 0.00000
				CHANNELS 3 Zrotation Yrotation Xrotation
				JOINT LeftAnkle
				{
					OFFSET 2.68396 -7.37412 0.00000
					CHANNELS 3 Zrotation Yrotation Xrotation
					JOINT LeftToe
					{
						OFFSET 0.20538 -0.56428 2.52710
						CHANNELS 3 Zrotation Yrotation Xrotation
						End Site
						{
							OFFSET 0.00000 -0.00000 1.29919
						}
					}
				}
			}
		}
	}
	JOINT RHipJoint
	{
		OFFSET 0 0 0
		CHANNELS 3 Zrotation Yrotation Xrotation
		JOINT RightHip
		{
			OFFSET -1.45689 -1.71333 0.88991
			CHANNELS 3 Zrotation Yrotation Xrotation
			JOINT RightKnee
			{
				OFFSET -2.36700 -6.50329 0.00000
				CHANNELS 3 Zrotation Yrotation Xrotation
				JOINT RightAnkle
				{
					OFFSET -2.69814 -7.41308 0.00000
					CHANNELS 3 Zrotation Yrotation Xrotation
					JOINT RightToe
					{
						OFFSET -0.18734 -0.51471 2.37479
						CHANNELS 3 Zrotation Yrotation Xrotation
						End Site
						{
							OFFSET -0.00000 -0.00000 1.22113
						}
					}
				}
			}
		}
	}
	JOINT lowerback
	{
		OFFSET 0 0 0
		CHANNELS 3 Zrotation Yrotation Xrotation
		JOINT Chest
		{
			OFFSET 0.04294 2.14638 -0.31163
			CHANNELS 3 Zrotation Yrotation Xrotation
			JOINT Chest2
			{
				OFFSET -0.00400 2.17216 0.01486
				CHANNELS 3 Zrotation Yrotation Xrotation
				JOINT lowerneck
				{
					OFFSET 0 0 0
					CHANNELS 3 Zrotation Yrotation Xrotation
					JOINT Neck
					{
						OFFSET 0.03869 1.76598 0.14916
						CHANNELS 3 Zrotation Yrotation Xrotation
						JOINT Head
						{
							OFFSET -0.00760 1.75513 -0.18948
							CHANNELS 3 Zrotation Yrotation Xrotation
							End Site
							{
								OFFSET -0.00601 1.82444 -0.08310
							}
						}
					}
				}
				JOINT LeftCollar
				{
					OFFSET 0 0 0
					CHANNELS 3 Zrotation Yrotation Xrotation
					JOINT LeftShoulder
					{
						OFFSET 3.73696 0.92058 0.01733
CHANNELS 3 Zrotation Xrotation Yrotation
						JOINT LeftElbow
						{
OFFSET 0 -5.227710 0.000000
CHANNELS 3 Zrotation Xrotation Yrotation
							JOINT LeftWrist
							{
OFFSET 0 -3.452510 0.000000
CHANNELS 3 Zrotation Xrotation Yrotation
								JOINT lhand
								{
									OFFSET 0 0 0
CHANNELS 3 Zrotation Xrotation Yrotation
									JOINT LFingers
									{
OFFSET 0 -0.552120 0.000000
CHANNELS 3 Zrotation Xrotation Yrotation
										End Site
										{
OFFSET 0 -0.445130 0.000000
										}
									}
								}
								JOINT LThumb
								{
OFFSET 0 0.000000 0.000000
CHANNELS 3 Zrotation Xrotation Yrotation
									End Site
									{
OFFSET 0 -0.451930 0.451930
									}
								}
							}
						}
					}
				}
				JOINT RightCollar
				{
					OFFSET 0 0 0
					CHANNELS 3 Zrotation Yrotation Xrotation
					JOINT RightShoulder
					{
						OFFSET -3.63819 0.83094 -0.13694
CHANNELS 3 Zrotation Xrotation Yrotation
						JOINT RightElbow
						{
OFFSET 0 -5.239800 -0.000000
CHANNELS 3 Zrotation Xrotation Yrotation
							JOINT RightWrist
							{
OFFSET 0 -3.480420 -0.000000
CHANNELS 3 Zrotation Xrotation Yrotation
								JOINT rhand
								{
									OFFSET 0 0 0
CHANNELS 3 Zrotation Xrotation Yrotation
									JOINT RFingers
									{
OFFSET 0 -0.618710 0.000000
CHANNELS 3 Zrotation Xrotation Yrotation
										End Site
										{
OFFSET 0 -0.498820 0.000000
										}
									}
								}
								JOINT RThumb
								{
OFFSET 0 0.000000 0.000000
CHANNELS 3 Zrotation Xrotation Yrotation
									End Site
									{
OFFSET 0 -0.506440 0.506440
									}
								}
							}
						}
					}
				}
			}
		}
	}
}
MOTION
Frames: 12
Frame Time: 0.008333333333333333
-38.352100 17.007800 -5.322800 -105.279000 86.665000 -107.266000 0.000000 0.000000 0.000000 -15.835200 6.294000 0.667100 0.922200 6.118300 17.127900 0.832500 4.711800 -19.569400 0.148000 -2.479500 -6.832800 0.000000 0.000000 0.000000 24.219900 4.244700 -5.200300 -3.180200 -10.981200 32.216500 -2.322300 -6.256700 -31.540900 -0.211100 -2.958200 8.162500 2.123700 -0.216200 2.295800 0.048800 -0.232500 2.082600 -1.136400 -0.080900 0.838900 2.492900 0.171600 -6.244500 1.196800 -0.013500 2.817000 -0.048100 0.060300 1.946900 0.000000 -0.000000 0.000000 2.424700 1.163800 -25.991700 12.224000 -20.139700 2.178800 17.123900 -13.751100 -11.458900 0.000000 0.000000 0.000000 -7.125000 0.000000 0.000000 -8.962100 41.785200 -0.717100 0.000000 -0.000000 0.000000 0.700300 0.416800 20.034500 -13.186100 -21.559300 -2.521300 -15.926100 5.244100 9.908800 0.000000 0.000000 0.000000 7.125000 0.000000 -0.000000 9.703000 40.090500 1.187200
-38.355227 17.008162 -5.322169 -104.957711 86.577062 -106.951863 0.000000 0.000000 0.000000 -15.736446 6.246199 0.634681 0.929742 6.142604 17.198636 0.838131 4.701767 -19.619121 0.142619 -2.434043 -6.706726 0.000000 0.000000 0.000000 24.326796 4.243040 -5.189026 -3.173158 -10.970281 32.179688 -2.323786 -6.256064 -31.549612 -0.215005 -2.985156 8.237428 2.195192 -0.233241 2.324663 0.078420 -0.253265 2.086557 -1.145716 -0.090537 0.826014 2.452747 0.176863 -6.198299 1.242159 -0.002997 2.788830 -0.026599 0.065763 1.929219 0.000000 0.000000 0.000000 2.421563 1.160804 -25.971101 12.228804 -20.146912 2.180442 17.106770 -13.772599 -11.440834 0.000000 0.000000 0.000000 -7.125000 0.000000 0.000000 -8.973550 41.764953 -0.722599 0.000000 0.000000 0.000000 0.645492 0.395038 20.092133 -13.173968 -21.541554 -2.516836 -15.951900 5.225727 9.942025 0.000000 0.000000 0.000000 7.125000 0.000000 0.000000 9.687181 40.126637 1.176470
-38.356116 17.007954 -5.321846 -105.126853 86.572574 -107.134392 0.000000 0.000000 0.000000 -15.726942 6.266594 0.627799 0.930361 6.144507 17.204221 0.834530 4.708915 -19.588350 0.146254 -2.464654 -6.791555 0.000000 0.000000 0.000000 24.338289 4.263381 -5.173547 -3.173216 -10.970324 32.179802 -2.316799 -6.336066 -31.549908 -0.209884 -2.949587 8.138477 2.178668 -0.241956 2.314599 0.084340 -0.265218 2.112804 -1.130274 -0.096017 0.858181 2.472793 0.178517 -6.222855 1.217931 -0.002014 2.779736 -0.037623 0.065893 1.930753 0.000000 0.000000 0.000000 2.409367 1.108846 -25.948678 12.217922 -20.130622 2.176707 17.115716 -13.760636 -11.418623 0.000000 0.000000 0.000000 -7.125000 0.000000 0.000000 -8.961330 41.743099 -0.726454 0.000000 0.000000 0.000000 0.602368 0.364572 20.113731 -13.179693 -21.549963 -2.518916 -15.954074 5.233406 9.963048 0.000000 0.000000 0.000000 7.125000 0.000000 0.000000 9.689281 40.148272 1.171522
-38.357458 17.008365 -5.321304 -105.224942 86.573438 -107.233596 0.000000 0.000000 0.000000 -15.724564 6.280319 0.625675 0.928342 6.137860 17.185012 0.832346 4.705595 -19.564405 0.147624 -2.475788 -6.822580 0.000000 0.000000 0.000000 24.341929 4.281790 -5.181663 -3.175624 -10.974051 32.192379 -2.315200 -6.370771 -31.558968 -0.208235 -2.938204 8.106776 2.158207 -0.250656 2.304635 0.088216 -0.277338 2.128681 -1.114712 -0.101936 0.879710 2.474213 0.184313 -6.233724 1.219451 0.005240 2.778507 -0.037169 0.069585 1.932335 0.000000 0.000000 0.000000 2.398417 1.074691 -25.917692 12.214318 -20.125326 2.175473 17.114978 -13.747143 -11.431871 0.000000 0.000000 0.000000 -7.125000 0.000000 0.000000 -8.964593 41.756599 -0.723729 0.000000 0.000000 0.000000 0.562293 0.348104 20.151488 -13.186060 -21.559241 -2.521285 -15.983947 5.219061 9.967766 0.000000 0.000000 0.000000 7.125000 0.000000 0.000000 9.664474 40.155582 1.166679
-38.359139 17.008908 -5.320738 -105.239922 86.570466 -107.246382 0.000000 0.000000 0.000000 -15.718087 6.285061 0.616179 0.927654 6.135662 17.178639 0.831392 4.701399 -19.552374 0.148262 -2.481325 -6.837904 0.000000 0.000000 0.000000 24.348143 4.291071 -5.194221 -3.176916 -10.976024 32.199132 -2.314716 -6.383861 -31.563140 -0.208231 -2.937958 8.106173 2.146698 -0.256687 2.300070 0.090017 -0.285780 2.135917 -1.106274 -0.106094 0.889401 2.477656 0.188872 -6.228264 1.224563 0.011111 2.779314 -0.035892 0.072632 1.931668 0.000000 0.000000 0.000000 2.392944 1.055572 -25.895662 12.215378 -20.126872 2.175877 17.117217 -13.739629 -11.459110 0.000000 0.000000 0.000000 -7.125000 0.000000 0.000000 -8.968047 41.784780 -0.717682 0.000000 0.000000 0.000000 0.531704 0.346048 20.194266 -13.194789 -21.571899 -2.524440 -16.013118 5.195395 9.988573 0.000000 0.000000 0.000000 7.125000 0.000000 0.000000 9.643109 40.179274 1.158358
-38.361151 17.008958 -5.320215 -105.232152 86.565518 -107.239000 0.000000 0.000000 0.000000 -15.711049 6.282713 0.609452 0.927415 6.134903 17.176367 0.830730 4.704111 -19.547594 0.148358 -2.482046 -6.839837 0.000000 0.000000 0.000000 24.352942 4.287328 -5.205708 -3.177997 -10.977766 32.204984 -2.317615 -6.358293 -31.566769 -0.211287 -2.959269 8.165310 2.142901 -0.262372 2.309241 0.089588 -0.293111 2.136358 -1.104449 -0.109848 0.884504 2.496173 0.200504 -6.221982 1.218980 0.025580 2.776843 -0.040299 0.079947 1.929906 0.000000 0.000000 0.000000 2.390964 1.050110 -25.882425 12.220287 -20.134181 2.177524 17.121563 -13.743581 -11.468270 0.000000 0.000000 0.000000 -7.125000 0.000000 0.000000 -8.966037 41.794640 -0.715342 0.000000 0.000000 0.000000 0.512420 0.344841 20.213068 -13.198679 -21.577582 -2.525846 -16.030135 5.180694 9.998132 0.000000 0.000000 0.000000 7.125000 0.000000 0.000000 9.630268 40.190417 1.154124
-38.363209 17.009131 -5.320069 -105.243441 86.571643 -107.253676 0.000000 0.000000 0.000000 -15.718305 6.280854 0.611265 0.926446 6.131975 17.167787 0.829907 4.710972 -19.543906 0.147715 -2.476963 -6.825691 0.000000 0.000000 0.000000 24.342601 4.277970 -5.219008 -3.179709 -10.980463 32.214013 -2.317829 -6.343854 -31.560231 -0.212046 -2.964612 8.180220 2.130600 -0.268034 2.324163 0.086460 -0.300381 2.136856 -1.100635 -0.113656 0.876504 2.516811 0.218156 -6.224288 1.212257 0.047836 2.775376 -0.045141 0.091068 1.929985 0.000000 0.000000 0.000000 2.385963 1.045895 -25.869066 12.225596 -20.142097 2.179378 17.137659 -13.751619 -11.451435 0.000000 0.000000 0.000000 -7.125000 0.000000 0.000000 -8.948554 41.778889 -0.717372 0.000000 0.000000 0.000000 0.501810 0.327731 20.184280 -13.191494 -21.567153 -2.523213 -16.029335 5.198281 9.969151 0.000000 0.000000 0.000000 7.125000 0.000000 0.000000 9.625444 40.160766 1.160637
-38.365055 17.009181 -5.319881 -105.225321 86.581775 -107.242902 0.000000 0.000000 0.000000 -15.728962 6.285965 0.619565 0.924945 6.126955 17.153222 0.828864 4.715223 -19.535886 0.147200 -2.472177 -6.812452 0.000000 0.000000 0.000000 24.328445 4.267081 -5.228861 -3.181616 -10.983394 32.223878 -2.316926 -6.335117 -31.550320 -0.211749 -2.962501 8.174381 2.112612 -0.273407 2.337026 0.085481 -0.307342 2.142607 -1.091390 -0.117290 0.875006 2.526974 0.229697 -6.232710 1.206510 0.062197 2.782197 -0.048216 0.098358 1.933868 0.000000 0.000000 0.000000 2.371828 1.036713 -25.849977 12.231678 -20.151146 2.181432 17.146993 -13.758094 -11.420854 0.000000 0.000000 0.000000 -7.125000 0.000000 0.000000 -8.934203 41.748337 -0.723023 0.000000 0.000000 0.000000 0.490499 0.303219 20.142956 -13.184706 -21.557310 -2.520742 -16.025697 5.225527 9.907392 0.000000 0.000000 0.000000 7.125000 0.000000 0.000000 9.616892 40.097457 1.174743
-38.366563 17.009216 -5.319584 -105.208529 86.591620 -107.232686 0.000000 0.000000 0.000000 -15.736941 6.297259 0.624492 0.923753 6.123159 17.142100 0.827761 4.711890 -19.523414 0.146984 -2.470651 -6.808284 0.000000 0.000000 0.000000 24.317896 4.264616 -5.231182 -3.182739 -10.985255 32.230080 -2.316490 -6.331757 -31.545639 -0.211629 -2.961429 8.171382 2.094449 -0.276055 2.340825 0.084308 -0.311094 2.149506 -1.082423 -0.119155 0.879771 2.532143 0.228627 -6.227864 1.200339 0.060480 2.793633 -0.051065 0.097482 1.936729 0.000000 0.000000 0.000000 2.358637 1.029410 -25.841586 12.237243 -20.159461 2.183378 17.136635 -13.766145 -11.401468 0.000000 0.000000 0.000000 -7.125000 0.000000 0.000000 -8.939483 41.727535 -0.728075 0.000000 0.000000 0.000000 0.476706 0.301344 20.137823 -13.193234 -21.569646 -2.523886 -16.040703 5.219993 9.832375 0.000000 0.000000 0.000000 7.125000 0.000000 0.000000 9.589721 40.021954 1.189386
-38.368071 17.009400 -5.319207 -105.236715 86.599691 -107.263678 0.000000 0.000000 0.000000 -15.744476 6.302130 0.627771 0.922237 6.118321 17.128056 0.826529 4.711852 -19.510764 0.146415 -2.465529 -6.794153 0.000000 0.000000 0.000000 24.308372 4.262199 -5.238160 -3.183971 -10.986960 32.236053 -2.315296 -6.331942 -31.538992 -0.211378 -2.959946 8.167267 2.077360 -0.277085 2.333169 0.081992 -0.312874 2.156086 -1.075110 -0.120089 0.890887 2.563802 0.238641 -6.226565 1.171537 0.072542 2.793370 -0.065137 0.103036 1.936574 0.000000 0.000000 0.000000 2.350310 1.024555 -25.847416 12.242219 -20.166879 2.185071 17.115475 -13.785689 -11.381778 0.000000 0.000000 0.000000 -7.125000 0.000000 0.000000 -8.954147 41.705122 -0.734286 0.000000 0.000000 0.000000 0.456664 0.334021 20.201993 -13.229899 -21.623132 -2.537403 -16.084204 5.144564 9.762038 0.000000 0.000000 0.000000 7.125000 0.000000 0.000000 9.538906 39.953694 1.199146
-38.369848 17.009754 -5.318646 -105.317594 86.612237 -107.346442 0.000000 0.000000 0.000000 -15.758800 6.299149 0.631918 0.920791 6.113619 17.114412 0.825391 4.715644 -19.501623 0.145191 -2.455629 -6.766705 0.000000 0.000000 0.000000 24.293176 4.260722 -5.250863 -3.185463 -10.989403 32.244116 -2.311017 -6.352972 -31.524456 -0.208465 -2.939922 8.111504 2.055393 -0.277439 2.324284 0.077349 -0.313878 2.161644 -1.067653 -0.120639 0.901549 2.609610 0.260238 -6.230851 1.134207 0.099297 2.782218 -0.083739 0.115837 1.934128 0.000000 0.000000 0.000000 2.345386 1.020147 -25.860880 12.243870 -20.169354 2.185685 17.116767 -13.804791 -11.376635 0.000000 0.000000 0.000000 -7.125000 0.000000 0.000000 -8.951936 41.700099 -0.735282 0.000000 0.000000 0.000000 0.437065 0.373244 20.275942 -13.267381 -21.677820 -2.551197 -16.138366 5.060059 9.693114 0.000000 0.000000 0.000000 7.125000 0.000000 0.000000 9.479435 39.887670 1.207056
-38.371733 17.009753 -5.318080 -105.272492 86.617366 -107.302958 0.000000 0.000000 0.000000 -15.762694 6.295187 0.632080 0.920227 6.111780 17.108967 0.824607 4.719925 -19.496961 0.144327 -2.448440 -6.746788 0.000000 0.000000 0.000000 24.289706 4.264160 -5.260645 -3.186840 -10.991606 32.251465 -2.308780 -6.359155 -31.514602 -0.207573 -2.933586 8.093912 2.040689 -0.278640 2.322366 0.077826 -0.315713 2.169138 -1.058949 -0.121620 0.910291 2.618315 0.268860 -6.235086 1.126366 0.110407 2.776714 -0.087247 0.121153 1.933227 0.000000 0.000000 0.000000 2.333996 1.006764 -25.861614 12.242474 -20.167234 2.185134 17.136576 -13.810293 -11.383672 0.000000 0.000000 0.000000 -7.125000 0.000000 0.000000 -8.935896 41.709132 -0.731901 0.000000 0.000000 0.000000 0.419317 0.388106 20.317962 -13.284898 -21.703164 -2.557673 -16.189376 5.013794 9.613580 0.000000 0.000000 0.000000 7.125000 0.000000 0.000000 9.420833 39.810439 1.217490
